<svg width="56" height="52" viewBox="0 0 56 52" fill="none" xmlns="http://www.w3.org/2000/svg">
<path d="M17.6788 11.6377H17.1524C14.3744 11.6377 12.1224 13.8897 12.1224 16.6677V16.6677M17.6788 11.6377V3M17.6788 11.6377H24.3465M24.3465 11.6377V3M24.3465 11.6377H31.3652M31.3652 11.6377V3M31.3652 11.6377H38.2669M38.2669 11.6377H39.0857C41.8637 11.6377 44.1157 13.8897 44.1157 16.6677V16.6677M38.2669 11.6377V3M44.1157 16.6677H53M44.1157 16.6677V22.9845M44.1157 22.9845H53M44.1157 22.9845L44.2327 29.5352M44.2327 29.5352H53M44.2327 29.5352L44.1609 33.485L44.1157 35.969M44.1157 35.969H53M44.1157 35.969V36.2564V36.2564C44.1157 38.5203 42.2804 40.3557 40.0164 40.3557H38.2669M38.2669 40.3557V49.3626M38.2669 40.3557H31.3652M31.3652 40.3557V49.3626M31.3652 40.3557H24.3465M24.3465 40.3557V49.3626M24.3465 40.3557H17.6788M17.6788 40.3557H16.5091C14.0864 40.3557 12.1224 38.3917 12.1224 35.969V35.969M17.6788 40.3557V49.3626M12.1224 35.969H3M12.1224 35.969V29.5352M12.1224 29.5352H3M12.1224 29.5352V22.9845M12.1224 22.9845H3M12.1224 22.9845V17.3111V16.6677M12.1224 16.6677H3" stroke="#1C5B36" stroke-width="5" stroke-linecap="round"/>
</svg>
